<svg width="588" height="124" viewBox="0 0 588 124" fill="none" xmlns="http://www.w3.org/2000/svg" xmlns:xlink="http://www.w3.org/1999/xlink">
<g style="isolation:isolate" filter="url(#filter2201_244)">
<path d="M31.894,25.316C34.797,25.171 37.192,25.099 39.078,25.099C45.61,25.099 51.596,25.533 57.039,26.402C59.797,26.691 62.446,27.125 64.985,27.704L64.985,43.229C61.938,42.939 59.652,42.686 58.128,42.469C56.894,42.397 54.898,42.216 52.141,41.926C49.383,41.781 47.569,41.709 46.698,41.709C42.271,41.709 39.006,41.818 36.901,42.035C34.869,42.18 33.2,42.614 31.894,43.338L31.894,25.316ZM39.078,101.527C31.821,101.527 26.016,100.985 21.662,99.899C17.38,98.813 14.042,96.895 11.647,94.145C9.253,91.395 7.547,87.595 6.531,82.746C5.588,77.897 5.116,71.419 5.116,63.313C5.116,56.437 5.443,50.792 6.096,46.377C6.749,41.962 7.874,38.344 9.47,35.521C11.139,32.626 13.389,30.418 16.219,28.899C19.049,27.379 22.75,26.329 27.322,25.75L27.322,63.313C27.322,68.452 27.467,72.396 27.758,75.147C28.048,77.824 28.592,79.887 29.39,81.335C30.261,82.855 31.495,83.904 33.091,84.483C34.76,85.062 37.119,85.351 40.167,85.351L40.167,101.527L39.078,101.527ZM44.739,71.998L37.01,71.998L37.01,56.257L65.312,56.257L65.312,98.813C61.901,99.609 57.656,100.225 52.576,100.659C50.109,101.021 47.496,101.238 44.739,101.31L44.739,71.998Z" fill="#F86303" stroke="#000000" stroke-width="1" stroke-miterlimit="3.999327"/>
<path d="M83.29,25.967L105.06,25.967L105.06,100.659L83.29,100.659L83.29,25.967ZM109.632,25.967L137.281,25.967L137.281,42.578L109.632,42.578L109.632,25.967ZM109.632,54.628L132.165,54.628L132.165,71.238L109.632,71.238L109.632,54.628ZM109.632,84.049L137.281,84.049L137.281,100.659L109.632,100.659L109.632,84.049Z" fill="#F86303" stroke="#000000" stroke-width="1" stroke-miterlimit="3.999327"/>
<path d="M154.721,29.007L154.721,25.967L176.491,25.967L218.508,97.511L218.508,100.659L196.847,100.659L154.721,29.007ZM197.826,53.217L197.826,25.967L218.508,25.967L218.508,88.5L197.826,53.217ZM154.721,38.018L175.403,73.301L175.403,100.659L154.721,100.659L154.721,38.018Z" fill="#F86303" stroke="#000000" stroke-width="1" stroke-miterlimit="3.999327"/>
<path d="M236.994,25.967L258.764,25.967L258.764,100.659L236.994,100.659L236.994,25.967ZM263.336,25.967L290.986,25.967L290.986,42.578L263.336,42.578L263.336,25.967ZM263.336,54.628L285.87,54.628L285.87,71.238L263.336,71.238L263.336,54.628ZM263.336,84.049L290.986,84.049L290.986,100.659L263.336,100.659L263.336,84.049Z" fill="#F86303" stroke="#000000" stroke-width="1" stroke-miterlimit="3.999327"/>
<path d="M308.424,25.967L330.196,25.967L330.196,100.659L308.424,100.659L308.424,25.967ZM339.122,75.255L334.768,75.255L334.768,58.645L338.468,58.645C340.718,58.645 342.424,58.573 343.584,58.428C344.746,58.211 345.652,57.849 346.306,57.342C346.886,56.836 347.286,56.076 347.504,55.062C347.72,54.049 347.83,52.565 347.83,50.611C347.83,48.657 347.72,47.173 347.504,46.16C347.286,45.075 346.886,44.278 346.306,43.772C345.726,43.265 344.854,42.939 343.694,42.795C342.604,42.65 340.864,42.578 338.468,42.578L334.768,42.578L334.768,25.967L345.98,25.967C351.132,25.967 355.304,26.474 358.498,27.487C361.69,28.501 364.158,30.057 365.9,32.155C367.496,34.11 368.548,36.534 369.056,39.429C369.636,42.324 369.926,46.052 369.926,50.611C369.926,56.474 369.382,60.997 368.294,64.182C366.77,68.235 364.086,71.094 360.238,72.758L371.56,100.659L348.7,100.659L339.122,75.255Z" fill="#F86303" stroke="#000000" stroke-width="1" stroke-miterlimit="3.999327"/>
<path d="M403.108,25.967L404.958,25.967L413.558,55.714L401.04,100.659L379.27,100.659L403.108,25.967ZM427.6,87.414L409.422,87.414L413.994,70.695L422.702,70.695L409.858,25.967L429.778,25.967L441.696,63.313L453.616,100.659L431.41,100.659L427.6,87.414Z" fill="#F86303" stroke="#000000" stroke-width="1" stroke-miterlimit="3.999327"/>
<path d="M465.212,25.967L486.982,25.967L486.982,100.659L465.212,100.659L465.212,25.967ZM491.554,83.18L514.848,83.18L514.848,100.659L491.554,100.659L491.554,83.18Z" fill="#F86303" stroke="#000000" stroke-width="1" stroke-miterlimit="3.999327"/>
<path d="M580.054,43.12C577.658,42.831 573.45,42.433 567.426,41.926C564.088,41.781 561.404,41.709 559.372,41.709C556.76,41.709 554.292,41.781 551.97,41.926L551.97,25.099L554.69,25.099C560.642,25.099 566.81,25.497 573.196,26.293C575.228,26.583 577.514,26.981 580.054,27.487L580.054,43.12ZM562.092,78.621C562.092,77.101 561.984,76.015 561.766,75.364C561.548,74.64 561.186,74.169 560.678,73.952C560.17,73.663 559.3,73.446 558.066,73.301L544.676,71.673C536.766,70.804 531.432,68.235 528.674,63.965C527.442,62.155 526.606,59.948 526.172,57.342C525.736,54.737 525.518,51.552 525.518,47.789C525.518,39.755 527.586,33.965 531.722,30.418C535.062,27.523 540.286,25.823 547.398,25.316L547.398,47.137C547.398,48.078 547.434,48.874 547.506,49.526C547.58,50.177 547.724,50.684 547.942,51.046C548.16,51.48 548.522,51.805 549.03,52.023C549.538,52.167 550.3,52.276 551.316,52.348L566.338,54.194C569.458,54.628 571.998,55.171 573.958,55.822C575.918,56.474 577.586,57.487 578.966,58.862C582.23,62.264 583.864,68.307 583.864,76.992C583.864,86.184 581.832,92.625 577.768,96.316C575.954,97.981 573.74,99.211 571.128,100.008C568.588,100.731 565.576,101.202 562.092,101.419L562.092,78.621ZM556.324,101.527C549.066,101.527 542.318,101.202 536.078,100.55C532.376,100.188 529.582,99.827 527.696,99.465L527.696,83.614C531.976,83.976 536.876,84.338 542.39,84.7C545.874,84.845 548.342,84.917 549.792,84.917C553.712,84.917 556.288,84.809 557.522,84.592L557.522,101.527L556.324,101.527Z" fill="#F86303" stroke="#000000" stroke-width="1" stroke-miterlimit="3.999327"/>
<path d="M0,115.315L588,115.315L588,124L0,124L0,115.315Z" fill="#F86303" stroke="#000000" stroke-width="1" stroke-miterlimit="3.999327"/>
<path d="M0,-0.037L588,-0.037L588,8.648L0,8.648L0,-0.037Z" fill="#F86303" stroke="#000000" stroke-width="1" stroke-miterlimit="3.999327"/>
</g>
<defs>
<filter id="filter2201_244" x="-4" y="-4.037109" width="302" height="70.018585" filterUnits="userSpaceOnUse" color-interpolation-filters="sRGB">
<feFlood flood-opacity="0" result="BackgroundImageFix"/>
<feColorMatrix in="SourceAlpha" type="matrix" values="0 0 0 0 0 0 0 0 0 0 0 0 0 0 0 0 0 0 127 0" result="hardAlpha"/>
<feMorphology radius="0" operator="dilate" in="SourceAlpha" result="0dropshadow"/>
<feOffset dx="0" dy="4"/>
<feGaussianBlur stdDeviation="2"/>
<feComposite in2="hardAlpha" operator="out"/>
<feColorMatrix type="matrix" values="0 0 0 0 0 0 0 0 0 0 0 0 0 0 0 0 0 0 0.25 0"/>
<feBlend mode="normal" in2="BackgroundImageFix" result="0dropshadow"/>
<feBlend mode="normal" in="SourceGraphic" in2="0dropshadow" result="shape"/>
<feColorMatrix in="SourceAlpha" type="matrix" values="0 0 0 0 0 0 0 0 0 0 0 0 0 0 0 0 0 0 127 0" result="hardAlpha"/>
<feMorphology radius="0" operator="erode" in="SourceAlpha" result="1innershadow"/>
<feOffset dx="0" dy="4"/>
<feGaussianBlur stdDeviation="2"/>
<feComposite in2="hardAlpha" operator="arithmetic" k2="-1" k3="1"/>
<feColorMatrix type="matrix" values="0 0 0 0 0 0 0 0 0 0 0 0 0 0 0 0 0 0 0.25 0"/>
<feBlend mode="normal" in2="shape" result="1innershadow"/>
</filter>
</defs>
</svg>
